<svg width="604" height="183" viewBox="0 0 604 183" fill="none" xmlns="http://www.w3.org/2000/svg">
<path d="M176.422 91V90.1836H177.415C178.283 90.1836 178.945 90.0512 179.401 89.7865C179.871 89.507 180.217 89.1319 180.438 88.6612C180.57 88.3523 180.636 87.4256 180.636 85.8811V66.2C180.636 64.6702 180.555 63.7141 180.394 63.3317C180.232 62.9492 179.901 62.6183 179.401 62.3388C178.915 62.0446 178.253 61.8975 177.415 61.8975H176.422V61.0812H189.815C193.389 61.0812 196.265 61.5666 198.442 62.5374C201.104 63.7288 203.12 65.5307 204.487 67.9431C205.87 70.3554 206.561 73.084 206.561 76.1288C206.561 78.2323 206.223 80.1739 205.547 81.9537C204.87 83.7189 203.995 85.1824 202.921 86.3445C201.847 87.4918 200.604 88.4185 199.192 89.1246C197.795 89.8159 196.081 90.3528 194.051 90.7352C193.154 90.9117 191.742 91 189.815 91H176.422ZM187.829 62.7801V86.1238C187.829 87.3594 187.888 88.117 188.006 88.3964C188.123 88.6759 188.322 88.8892 188.601 89.0363C188.999 89.2569 189.572 89.3673 190.322 89.3673C192.779 89.3673 194.654 88.5288 195.949 86.852C197.714 84.5867 198.596 81.0712 198.596 76.3053C198.596 72.4662 197.993 69.3993 196.787 67.1046C195.831 65.3101 194.603 64.0892 193.102 63.442C192.043 62.986 190.286 62.7654 187.829 62.7801ZM223.052 62.8022V74.9815H223.648C225.545 74.9815 226.921 74.3858 227.774 73.1943C228.627 72.0029 229.171 70.2451 229.407 67.921H230.245V83.5865H229.407C229.23 81.8802 228.855 80.4828 228.281 79.3943C227.722 78.3058 227.068 77.5777 226.318 77.21C225.567 76.8275 224.479 76.6363 223.052 76.6363V85.0648C223.052 86.7122 223.118 87.7198 223.251 88.0875C223.398 88.4553 223.663 88.7568 224.045 88.9922C224.427 89.2275 225.045 89.3452 225.898 89.3452H227.686C230.48 89.3452 232.716 88.698 234.393 87.4036C236.085 86.1091 237.298 84.1381 238.034 81.4904H238.85L237.504 91H211.645V90.1836H212.638C213.506 90.1836 214.204 90.0292 214.734 89.7203C215.116 89.5144 215.411 89.1613 215.617 88.6612C215.778 88.3082 215.859 87.3815 215.859 85.8811V66.2C215.859 64.8468 215.823 64.0157 215.749 63.7068C215.602 63.1919 215.33 62.7948 214.933 62.5153C214.374 62.1035 213.609 61.8975 212.638 61.8975H211.645V61.0812H236.688V69.9288H235.849C235.423 67.7666 234.82 66.2147 234.04 65.2733C233.275 64.3319 232.187 63.6406 230.775 63.1993C229.951 62.9345 228.406 62.8022 226.141 62.8022H223.052ZM275.309 61.0812V61.8975C274.22 62.074 273.249 62.6551 272.396 63.6406C271.778 64.3761 270.859 66.1044 269.638 68.8256L259.334 91.684H258.606L248.346 67.8989C247.111 65.0306 246.28 63.3464 245.853 62.8463C245.441 62.3462 244.654 62.0299 243.492 61.8975V61.0812H257.834V61.8975H257.349C256.054 61.8975 255.172 62.0593 254.701 62.3829C254.363 62.6036 254.193 62.9272 254.193 63.3538C254.193 63.6185 254.252 63.9348 254.37 64.3025C254.488 64.6555 254.885 65.619 255.561 67.1929L261.938 82.0861L267.851 68.8256C268.557 67.2223 268.991 66.1485 269.153 65.6043C269.315 65.06 269.395 64.5967 269.395 64.2142C269.395 63.773 269.278 63.3832 269.042 63.0449C268.807 62.7065 268.461 62.4491 268.005 62.2726C267.373 62.0226 266.535 61.8975 265.49 61.8975V61.0812H275.309ZM320.933 60.3972V70.7673H320.072C319.425 68.0607 318.219 65.9867 316.454 64.5452C314.689 63.1037 312.688 62.3829 310.452 62.3829C308.584 62.3829 306.871 62.9198 305.311 63.9936C303.752 65.0674 302.612 66.4721 301.891 68.2078C300.965 70.429 300.501 72.9001 300.501 75.6214C300.501 78.2985 300.84 80.7402 301.516 82.9466C302.193 85.1383 303.252 86.8005 304.694 87.9331C306.135 89.051 308.003 89.61 310.298 89.61C312.181 89.61 313.902 89.1981 315.461 88.3744C317.035 87.5507 318.689 86.1312 320.425 84.116V86.6975C318.748 88.4479 316.998 89.7203 315.174 90.5146C313.365 91.2942 311.247 91.684 308.82 91.684C305.628 91.684 302.789 91.0441 300.303 89.7644C297.832 88.4847 295.919 86.646 294.566 84.2484C293.228 81.8508 292.558 79.2987 292.558 76.5922C292.558 73.7386 293.301 71.032 294.787 68.4726C296.287 65.9132 298.302 63.9274 300.832 62.5153C303.377 61.1032 306.076 60.3972 308.93 60.3972C311.033 60.3972 313.254 60.8532 315.593 61.7651C316.946 62.2947 317.807 62.5594 318.175 62.5594C318.645 62.5594 319.05 62.3903 319.388 62.052C319.741 61.6989 319.969 61.1473 320.072 60.3972H320.933ZM343.138 60.6619C347.904 60.4854 351.772 61.8755 354.744 64.832C357.73 67.7886 359.223 71.488 359.223 75.9303C359.223 79.7253 358.112 83.0643 355.891 85.9473C352.949 89.7718 348.794 91.684 343.425 91.684C338.041 91.684 333.878 89.86 330.937 86.2121C328.612 83.3291 327.45 79.9091 327.45 75.9523C327.45 71.5101 328.958 67.8107 331.974 64.8541C335.004 61.8828 338.725 60.4854 343.138 60.6619ZM343.403 62.074C340.667 62.074 338.585 63.4714 337.159 66.2662C335.997 68.5609 335.416 71.8558 335.416 76.1509C335.416 81.255 336.313 85.028 338.107 87.4698C339.358 89.176 341.108 90.0292 343.359 90.0292C344.874 90.0292 346.139 89.6614 347.154 88.926C348.448 87.9846 349.456 86.4842 350.176 84.4249C350.897 82.3509 351.258 79.6517 351.258 76.3274C351.258 72.3706 350.89 69.414 350.154 67.4577C349.419 65.4866 348.477 64.0966 347.33 63.2876C346.197 62.4785 344.888 62.074 343.403 62.074ZM363.71 91V90.1836H364.703C365.571 90.1836 366.233 90.0512 366.689 89.7865C367.16 89.507 367.505 89.1319 367.726 88.6612C367.858 88.3523 367.925 87.4256 367.925 85.8811V66.2C367.925 64.6702 367.844 63.7141 367.682 63.3317C367.52 62.9492 367.189 62.6183 366.689 62.3388C366.204 62.0446 365.542 61.8975 364.703 61.8975H363.71V61.0812H377.103C380.678 61.0812 383.553 61.5666 385.73 62.5374C388.393 63.7288 390.408 65.5307 391.776 67.9431C393.159 70.3554 393.85 73.084 393.85 76.1288C393.85 78.2323 393.512 80.1739 392.835 81.9537C392.158 83.7189 391.283 85.1824 390.209 86.3445C389.136 87.4918 387.893 88.4185 386.481 89.1246C385.083 89.8159 383.37 90.3528 381.34 90.7352C380.442 90.9117 379.03 91 377.103 91H363.71ZM375.118 62.7801V86.1238C375.118 87.3594 375.176 88.117 375.294 88.3964C375.412 88.6759 375.61 88.8892 375.89 89.0363C376.287 89.2569 376.861 89.3673 377.611 89.3673C380.067 89.3673 381.943 88.5288 383.237 86.852C385.002 84.5867 385.885 81.0712 385.885 76.3053C385.885 72.4662 385.282 69.3993 384.076 67.1046C383.119 65.3101 381.891 64.0892 380.391 63.442C379.332 62.986 377.574 62.7654 375.118 62.7801ZM410.341 62.8022V74.9815H410.936C412.834 74.9815 414.209 74.3858 415.062 73.1943C415.915 72.0029 416.46 70.2451 416.695 67.921H417.533V83.5865H416.695C416.519 81.8802 416.143 80.4828 415.57 79.3943C415.011 78.3058 414.356 77.5777 413.606 77.21C412.856 76.8275 411.767 76.6363 410.341 76.6363V85.0648C410.341 86.7122 410.407 87.7198 410.539 88.0875C410.686 88.4553 410.951 88.7568 411.333 88.9922C411.716 89.2275 412.334 89.3452 413.187 89.3452H414.974C417.769 89.3452 420.005 88.698 421.682 87.4036C423.373 86.1091 424.587 84.1381 425.322 81.4904H426.138L424.793 91H398.933V90.1836H399.926C400.794 90.1836 401.493 90.0292 402.022 89.7203C402.405 89.5144 402.699 89.1613 402.905 88.6612C403.067 88.3082 403.148 87.3815 403.148 85.8811V66.2C403.148 64.8468 403.111 64.0157 403.037 63.7068C402.89 63.1919 402.618 62.7948 402.221 62.5153C401.662 62.1035 400.897 61.8975 399.926 61.8975H398.933V61.0812H423.976V69.9288H423.138C422.711 67.7666 422.108 66.2147 421.328 65.2733C420.564 64.3319 419.475 63.6406 418.063 63.1993C417.239 62.9345 415.695 62.8022 413.43 62.8022H410.341Z" fill="white"/>
<path d="M150.428 123.439C149.726 124.172 149.041 124.7 148.371 125.025C147.701 125.339 146.979 125.496 146.205 125.496C144.635 125.496 143.263 124.842 142.091 123.533C140.919 122.215 140.333 120.524 140.333 118.462C140.333 116.401 140.982 114.517 142.28 112.811C143.577 111.094 145.247 110.236 147.288 110.236C148.554 110.236 149.601 110.639 150.428 111.445V108.792C150.428 107.148 150.386 106.138 150.302 105.762C150.229 105.385 150.108 105.128 149.941 104.992C149.774 104.856 149.564 104.788 149.313 104.788C149.041 104.788 148.68 104.872 148.23 105.039L148.026 104.49L152.312 102.732H153.018V119.357C153.018 121.042 153.055 122.073 153.128 122.45C153.212 122.816 153.337 123.073 153.505 123.219C153.683 123.366 153.887 123.439 154.117 123.439C154.4 123.439 154.776 123.35 155.247 123.172L155.42 123.722L151.15 125.496H150.428V123.439ZM150.428 122.34V114.93C150.365 114.218 150.176 113.569 149.862 112.983C149.548 112.397 149.13 111.958 148.607 111.665C148.094 111.361 147.591 111.209 147.099 111.209C146.178 111.209 145.357 111.623 144.635 112.45C143.682 113.538 143.206 115.129 143.206 117.222C143.206 119.336 143.666 120.959 144.587 122.089C145.509 123.209 146.534 123.769 147.665 123.769C148.617 123.769 149.538 123.293 150.428 122.34ZM160.372 116.092C160.361 118.227 160.879 119.902 161.926 121.116C162.973 122.33 164.202 122.937 165.615 122.937C166.557 122.937 167.374 122.68 168.064 122.167C168.766 121.644 169.352 120.755 169.823 119.499L170.309 119.813C170.09 121.246 169.451 122.555 168.394 123.737C167.337 124.91 166.013 125.496 164.422 125.496C162.695 125.496 161.214 124.826 159.979 123.486C158.755 122.136 158.142 120.325 158.142 118.054C158.142 115.595 158.77 113.679 160.026 112.308C161.293 110.927 162.878 110.236 164.783 110.236C166.395 110.236 167.719 110.77 168.755 111.837C169.791 112.894 170.309 114.313 170.309 116.092H160.372ZM160.372 115.181H167.028C166.976 114.26 166.866 113.611 166.699 113.234C166.437 112.648 166.044 112.188 165.521 111.853C165.008 111.518 164.469 111.351 163.904 111.351C163.035 111.351 162.256 111.691 161.565 112.371C160.885 113.041 160.487 113.978 160.372 115.181ZM173.11 110.675H179.877V111.256H179.437C179.029 111.256 178.715 111.356 178.495 111.555C178.286 111.754 178.181 112.02 178.181 112.355C178.181 112.722 178.291 113.156 178.511 113.658L181.855 121.602L185.214 113.36C185.455 112.774 185.576 112.329 185.576 112.026C185.576 111.879 185.534 111.759 185.45 111.665C185.335 111.508 185.188 111.403 185.01 111.351C184.832 111.288 184.471 111.256 183.927 111.256V110.675H188.621V111.256C188.077 111.298 187.7 111.408 187.491 111.586C187.125 111.9 186.795 112.423 186.502 113.156L181.399 125.496H180.756L175.622 113.36C175.392 112.795 175.172 112.392 174.963 112.151C174.753 111.9 174.486 111.691 174.162 111.523C173.984 111.429 173.633 111.34 173.11 111.256V110.675ZM193.95 116.092C193.939 118.227 194.457 119.902 195.504 121.116C196.55 122.33 197.78 122.937 199.193 122.937C200.135 122.937 200.952 122.68 201.642 122.167C202.344 121.644 202.93 120.755 203.401 119.499L203.887 119.813C203.668 121.246 203.029 122.555 201.972 123.737C200.915 124.91 199.591 125.496 198 125.496C196.273 125.496 194.792 124.826 193.557 123.486C192.333 122.136 191.72 120.325 191.72 118.054C191.72 115.595 192.348 113.679 193.604 112.308C194.871 110.927 196.456 110.236 198.361 110.236C199.973 110.236 201.297 110.77 202.333 111.837C203.369 112.894 203.887 114.313 203.887 116.092H193.95ZM193.95 115.181H200.606C200.554 114.26 200.444 113.611 200.276 113.234C200.015 112.648 199.622 112.188 199.099 111.853C198.586 111.518 198.047 111.351 197.482 111.351C196.613 111.351 195.834 111.691 195.143 112.371C194.462 113.041 194.065 113.978 193.95 115.181ZM212.371 102.732V121.806C212.371 122.706 212.434 123.303 212.56 123.596C212.696 123.889 212.9 124.114 213.172 124.271C213.444 124.418 213.952 124.491 214.695 124.491V125.056H207.646V124.491C208.305 124.491 208.755 124.423 208.996 124.287C209.237 124.151 209.425 123.926 209.561 123.612C209.697 123.298 209.765 122.696 209.765 121.806V108.744C209.765 107.122 209.729 106.128 209.655 105.762C209.582 105.385 209.462 105.128 209.294 104.992C209.137 104.856 208.933 104.788 208.682 104.788C208.41 104.788 208.064 104.872 207.646 105.039L207.379 104.49L211.665 102.732H212.371ZM225.016 110.252C227.193 110.252 228.94 111.078 230.259 112.732C231.379 114.145 231.939 115.767 231.939 117.599C231.939 118.886 231.63 120.189 231.013 121.508C230.395 122.827 229.542 123.821 228.454 124.491C227.376 125.161 226.172 125.496 224.843 125.496C222.676 125.496 220.955 124.632 219.678 122.905C218.6 121.451 218.061 119.818 218.061 118.007C218.061 116.688 218.385 115.38 219.034 114.082C219.693 112.774 220.557 111.811 221.625 111.194C222.692 110.566 223.822 110.252 225.016 110.252ZM224.529 111.272C223.974 111.272 223.414 111.44 222.849 111.774C222.294 112.099 221.844 112.675 221.499 113.501C221.154 114.328 220.981 115.391 220.981 116.688C220.981 118.782 221.394 120.587 222.221 122.105C223.058 123.622 224.157 124.381 225.518 124.381C226.533 124.381 227.37 123.962 228.03 123.125C228.689 122.288 229.019 120.849 229.019 118.808C229.019 116.254 228.469 114.244 227.37 112.779C226.627 111.774 225.68 111.272 224.529 111.272ZM234.63 112.104L239.057 110.314H239.654V113.674C240.397 112.408 241.14 111.523 241.883 111.021C242.637 110.508 243.427 110.252 244.254 110.252C245.698 110.252 246.902 110.817 247.865 111.947C249.047 113.329 249.639 115.129 249.639 117.348C249.639 119.828 248.927 121.88 247.503 123.502C246.331 124.831 244.855 125.496 243.076 125.496C242.302 125.496 241.632 125.386 241.067 125.166C240.648 125.009 240.177 124.695 239.654 124.224V128.604C239.654 129.588 239.711 130.211 239.826 130.472C239.952 130.745 240.161 130.959 240.454 131.116C240.758 131.273 241.302 131.352 242.087 131.352V131.932H234.551V131.352H234.944C235.52 131.362 236.011 131.252 236.42 131.022C236.618 130.907 236.77 130.718 236.875 130.457C236.99 130.206 237.048 129.557 237.048 128.51V114.914C237.048 113.983 237.006 113.391 236.922 113.14C236.838 112.889 236.702 112.701 236.514 112.575C236.336 112.45 236.09 112.387 235.776 112.387C235.525 112.387 235.206 112.46 234.818 112.607L234.63 112.104ZM239.654 114.6V119.97C239.654 121.131 239.701 121.895 239.795 122.262C239.942 122.869 240.297 123.402 240.863 123.863C241.438 124.324 242.16 124.554 243.029 124.554C244.076 124.554 244.923 124.146 245.572 123.329C246.42 122.262 246.844 120.76 246.844 118.823C246.844 116.626 246.363 114.935 245.4 113.753C244.73 112.936 243.934 112.528 243.013 112.528C242.511 112.528 242.014 112.654 241.522 112.905C241.145 113.093 240.522 113.658 239.654 114.6ZM255.768 116.092C255.757 118.227 256.275 119.902 257.322 121.116C258.368 122.33 259.598 122.937 261.011 122.937C261.953 122.937 262.77 122.68 263.46 122.167C264.162 121.644 264.748 120.755 265.219 119.499L265.705 119.813C265.486 121.246 264.847 122.555 263.79 123.737C262.733 124.91 261.409 125.496 259.818 125.496C258.091 125.496 256.61 124.826 255.375 123.486C254.151 122.136 253.538 120.325 253.538 118.054C253.538 115.595 254.166 113.679 255.422 112.308C256.689 110.927 258.274 110.236 260.179 110.236C261.791 110.236 263.115 110.77 264.151 111.837C265.187 112.894 265.705 114.313 265.705 116.092H255.768ZM255.768 115.181H262.424C262.372 114.26 262.262 113.611 262.094 113.234C261.833 112.648 261.44 112.188 260.917 111.853C260.404 111.518 259.865 111.351 259.3 111.351C258.431 111.351 257.652 111.691 256.961 112.371C256.28 113.041 255.883 113.978 255.768 115.181ZM273.451 110.252V113.486C274.655 111.33 275.89 110.252 277.156 110.252C277.732 110.252 278.208 110.43 278.585 110.785C278.962 111.131 279.15 111.534 279.15 111.994C279.15 112.402 279.014 112.748 278.742 113.03C278.47 113.313 278.146 113.454 277.769 113.454C277.402 113.454 276.989 113.276 276.529 112.921C276.078 112.554 275.744 112.371 275.524 112.371C275.335 112.371 275.131 112.476 274.911 112.685C274.44 113.114 273.954 113.821 273.451 114.804V121.696C273.451 122.492 273.551 123.094 273.75 123.502C273.886 123.784 274.126 124.02 274.472 124.208C274.817 124.397 275.314 124.491 275.963 124.491V125.056H268.6V124.491C269.333 124.491 269.877 124.376 270.233 124.146C270.495 123.978 270.678 123.711 270.783 123.345C270.835 123.167 270.861 122.659 270.861 121.822V116.249C270.861 114.574 270.824 113.58 270.751 113.266C270.688 112.941 270.563 112.706 270.374 112.559C270.196 112.413 269.971 112.34 269.699 112.34C269.375 112.34 269.008 112.418 268.6 112.575L268.443 112.01L272.792 110.252H273.451ZM290.853 110.252V115.15H290.335C289.937 113.611 289.424 112.565 288.796 112.01C288.179 111.455 287.388 111.178 286.425 111.178C285.693 111.178 285.101 111.371 284.651 111.759C284.201 112.146 283.976 112.575 283.976 113.046C283.976 113.632 284.144 114.135 284.479 114.553C284.803 114.982 285.463 115.438 286.457 115.919L288.749 117.034C290.874 118.07 291.936 119.436 291.936 121.131C291.936 122.44 291.439 123.497 290.444 124.303C289.461 125.098 288.356 125.496 287.132 125.496C286.253 125.496 285.248 125.339 284.118 125.025C283.772 124.92 283.49 124.868 283.27 124.868C283.029 124.868 282.841 125.004 282.705 125.276H282.187V120.142H282.705C282.998 121.608 283.558 122.712 284.384 123.455C285.211 124.198 286.138 124.569 287.163 124.569C287.885 124.569 288.472 124.36 288.922 123.941C289.382 123.512 289.612 123 289.612 122.403C289.612 121.681 289.356 121.074 288.843 120.582C288.341 120.09 287.331 119.467 285.813 118.714C284.296 117.96 283.301 117.28 282.83 116.673C282.359 116.076 282.124 115.323 282.124 114.412C282.124 113.229 282.527 112.24 283.333 111.445C284.149 110.649 285.201 110.252 286.488 110.252C287.053 110.252 287.739 110.372 288.545 110.613C289.079 110.77 289.434 110.848 289.612 110.848C289.78 110.848 289.911 110.812 290.005 110.738C290.099 110.665 290.209 110.503 290.335 110.252H290.853ZM317.554 119.593C317.167 121.487 316.408 122.947 315.278 123.973C314.147 124.988 312.897 125.496 311.526 125.496C309.893 125.496 308.469 124.81 307.255 123.439C306.041 122.068 305.434 120.215 305.434 117.882C305.434 115.621 306.104 113.784 307.444 112.371C308.794 110.958 310.411 110.252 312.295 110.252C313.708 110.252 314.87 110.628 315.78 111.382C316.691 112.125 317.146 112.9 317.146 113.705C317.146 114.103 317.015 114.428 316.754 114.679C316.502 114.92 316.147 115.04 315.686 115.04C315.068 115.04 314.603 114.841 314.289 114.443C314.111 114.224 313.99 113.805 313.928 113.187C313.875 112.57 313.666 112.099 313.3 111.774C312.933 111.46 312.426 111.303 311.777 111.303C310.73 111.303 309.888 111.691 309.249 112.465C308.401 113.491 307.978 114.846 307.978 116.531C307.978 118.248 308.396 119.765 309.234 121.084C310.081 122.392 311.222 123.047 312.656 123.047C313.682 123.047 314.603 122.696 315.419 121.995C315.995 121.513 316.555 120.639 317.099 119.373L317.554 119.593ZM328.268 110.252C330.444 110.252 332.192 111.078 333.511 112.732C334.631 114.145 335.191 115.767 335.191 117.599C335.191 118.886 334.882 120.189 334.265 121.508C333.647 122.827 332.794 123.821 331.706 124.491C330.628 125.161 329.424 125.496 328.095 125.496C325.928 125.496 324.207 124.632 322.93 122.905C321.852 121.451 321.313 119.818 321.313 118.007C321.313 116.688 321.637 115.38 322.286 114.082C322.945 112.774 323.809 111.811 324.876 111.194C325.944 110.566 327.074 110.252 328.268 110.252ZM327.781 111.272C327.226 111.272 326.666 111.44 326.101 111.774C325.546 112.099 325.096 112.675 324.751 113.501C324.405 114.328 324.233 115.391 324.233 116.688C324.233 118.782 324.646 120.587 325.473 122.105C326.31 123.622 327.409 124.381 328.77 124.381C329.785 124.381 330.622 123.962 331.282 123.125C331.941 122.288 332.271 120.849 332.271 118.808C332.271 116.254 331.721 114.244 330.622 112.779C329.879 111.774 328.932 111.272 327.781 111.272ZM343.188 113.313C344.235 112.266 344.852 111.665 345.041 111.508C345.512 111.11 346.019 110.801 346.564 110.581C347.108 110.361 347.647 110.252 348.181 110.252C349.081 110.252 349.855 110.513 350.504 111.037C351.153 111.56 351.587 112.319 351.807 113.313C352.885 112.057 353.796 111.235 354.539 110.848C355.282 110.45 356.046 110.252 356.831 110.252C357.595 110.252 358.27 110.45 358.856 110.848C359.453 111.235 359.924 111.874 360.269 112.764C360.499 113.371 360.615 114.323 360.615 115.621V121.806C360.615 122.706 360.683 123.324 360.819 123.659C360.923 123.889 361.117 124.088 361.4 124.255C361.682 124.412 362.143 124.491 362.781 124.491V125.056H355.685V124.491H355.983C356.601 124.491 357.082 124.371 357.428 124.13C357.668 123.962 357.841 123.696 357.946 123.329C357.988 123.151 358.008 122.644 358.008 121.806V115.621C358.008 114.449 357.867 113.622 357.585 113.14C357.176 112.47 356.522 112.136 355.622 112.136C355.067 112.136 354.508 112.277 353.942 112.559C353.388 112.832 352.713 113.344 351.917 114.098L351.886 114.271L351.917 114.946V121.806C351.917 122.79 351.969 123.402 352.074 123.643C352.189 123.884 352.399 124.088 352.702 124.255C353.006 124.412 353.524 124.491 354.256 124.491V125.056H346.987V124.491C347.783 124.491 348.327 124.397 348.62 124.208C348.924 124.02 349.133 123.737 349.248 123.361C349.301 123.183 349.327 122.665 349.327 121.806V115.621C349.327 114.449 349.154 113.606 348.809 113.093C348.348 112.423 347.704 112.088 346.878 112.088C346.312 112.088 345.752 112.24 345.198 112.544C344.329 113.004 343.659 113.522 343.188 114.098V121.806C343.188 122.748 343.251 123.361 343.377 123.643C343.513 123.926 343.706 124.14 343.957 124.287C344.219 124.423 344.742 124.491 345.527 124.491V125.056H338.416V124.491C339.075 124.491 339.535 124.423 339.797 124.287C340.059 124.14 340.258 123.915 340.394 123.612C340.53 123.298 340.598 122.696 340.598 121.806V116.312C340.598 114.731 340.551 113.711 340.457 113.25C340.383 112.905 340.268 112.669 340.111 112.544C339.954 112.408 339.74 112.34 339.467 112.34C339.174 112.34 338.824 112.418 338.416 112.575L338.18 112.01L342.513 110.252H343.188V113.313ZM369.821 113.313C370.867 112.266 371.485 111.665 371.673 111.508C372.144 111.11 372.652 110.801 373.196 110.581C373.74 110.361 374.279 110.252 374.813 110.252C375.713 110.252 376.488 110.513 377.137 111.037C377.786 111.56 378.22 112.319 378.44 113.313C379.518 112.057 380.428 111.235 381.171 110.848C381.915 110.45 382.679 110.252 383.464 110.252C384.228 110.252 384.903 110.45 385.489 110.848C386.085 111.235 386.556 111.874 386.902 112.764C387.132 113.371 387.247 114.323 387.247 115.621V121.806C387.247 122.706 387.315 123.324 387.451 123.659C387.556 123.889 387.749 124.088 388.032 124.255C388.315 124.412 388.775 124.491 389.414 124.491V125.056H382.317V124.491H382.616C383.233 124.491 383.715 124.371 384.06 124.13C384.301 123.962 384.474 123.696 384.578 123.329C384.62 123.151 384.641 122.644 384.641 121.806V115.621C384.641 114.449 384.5 113.622 384.217 113.14C383.809 112.47 383.155 112.136 382.255 112.136C381.7 112.136 381.14 112.277 380.575 112.559C380.02 112.832 379.345 113.344 378.55 114.098L378.518 114.271L378.55 114.946V121.806C378.55 122.79 378.602 123.402 378.707 123.643C378.822 123.884 379.031 124.088 379.335 124.255C379.638 124.412 380.156 124.491 380.889 124.491V125.056H373.62V124.491C374.415 124.491 374.96 124.397 375.253 124.208C375.556 124.02 375.766 123.737 375.881 123.361C375.933 123.183 375.959 122.665 375.959 121.806V115.621C375.959 114.449 375.786 113.606 375.441 113.093C374.981 112.423 374.337 112.088 373.51 112.088C372.945 112.088 372.385 112.24 371.83 112.544C370.962 113.004 370.292 113.522 369.821 114.098V121.806C369.821 122.748 369.884 123.361 370.009 123.643C370.145 123.926 370.339 124.14 370.59 124.287C370.852 124.423 371.375 124.491 372.16 124.491V125.056H365.048V124.491C365.707 124.491 366.168 124.423 366.43 124.287C366.691 124.14 366.89 123.915 367.026 123.612C367.162 123.298 367.23 122.696 367.23 121.806V116.312C367.23 114.731 367.183 113.711 367.089 113.25C367.016 112.905 366.901 112.669 366.744 112.544C366.587 112.408 366.372 112.34 366.1 112.34C365.807 112.34 365.456 112.418 365.048 112.575L364.813 112.01L369.146 110.252H369.821V113.313ZM404.79 110.675V119.389C404.79 121.053 404.826 122.073 404.899 122.45C404.983 122.816 405.109 123.073 405.276 123.219C405.454 123.366 405.658 123.439 405.889 123.439C406.213 123.439 406.579 123.35 406.988 123.172L407.207 123.722L402.906 125.496H402.199V122.45C400.964 123.79 400.022 124.632 399.373 124.978C398.724 125.323 398.039 125.496 397.317 125.496C396.511 125.496 395.81 125.265 395.213 124.805C394.627 124.334 394.219 123.732 393.988 123C393.758 122.267 393.643 121.231 393.643 119.891V113.47C393.643 112.79 393.57 112.319 393.423 112.057C393.277 111.795 393.057 111.597 392.764 111.46C392.481 111.314 391.963 111.246 391.21 111.256V110.675H396.249V120.299C396.249 121.639 396.479 122.518 396.94 122.937C397.411 123.355 397.976 123.565 398.635 123.565C399.085 123.565 399.593 123.423 400.158 123.141C400.734 122.858 401.414 122.319 402.199 121.524V113.376C402.199 112.559 402.047 112.01 401.744 111.727C401.451 111.434 400.833 111.277 399.891 111.256V110.675H404.79ZM414.059 113.297C415.744 111.267 417.35 110.252 418.878 110.252C419.663 110.252 420.338 110.45 420.903 110.848C421.469 111.235 421.919 111.879 422.254 112.779C422.484 113.407 422.599 114.37 422.599 115.668V121.806C422.599 122.717 422.672 123.334 422.819 123.659C422.934 123.921 423.117 124.125 423.368 124.271C423.63 124.418 424.106 124.491 424.797 124.491V125.056H417.685V124.491H417.983C418.653 124.491 419.119 124.392 419.381 124.193C419.653 123.983 419.841 123.68 419.946 123.282C419.988 123.125 420.009 122.633 420.009 121.806V115.919C420.009 114.611 419.836 113.664 419.491 113.077C419.156 112.481 418.585 112.183 417.779 112.183C416.534 112.183 415.294 112.863 414.059 114.224V121.806C414.059 122.78 414.116 123.382 414.231 123.612C414.378 123.915 414.577 124.14 414.828 124.287C415.089 124.423 415.613 124.491 416.398 124.491V125.056H409.286V124.491H409.6C410.333 124.491 410.824 124.308 411.076 123.941C411.337 123.565 411.468 122.853 411.468 121.806V116.469C411.468 114.742 411.426 113.69 411.343 113.313C411.269 112.936 411.149 112.68 410.981 112.544C410.824 112.408 410.61 112.34 410.338 112.34C410.045 112.34 409.694 112.418 409.286 112.575L409.05 112.01L413.383 110.252H414.059V113.297ZM431.209 102.732C431.648 102.732 432.02 102.889 432.323 103.203C432.637 103.506 432.794 103.878 432.794 104.317C432.794 104.757 432.637 105.134 432.323 105.448C432.02 105.762 431.648 105.919 431.209 105.919C430.769 105.919 430.392 105.762 430.078 105.448C429.764 105.134 429.607 104.757 429.607 104.317C429.607 103.878 429.759 103.506 430.063 103.203C430.376 102.889 430.759 102.732 431.209 102.732ZM432.512 110.252V121.806C432.512 122.706 432.574 123.308 432.7 123.612C432.836 123.905 433.03 124.125 433.281 124.271C433.543 124.418 434.014 124.491 434.694 124.491V125.056H427.708V124.491C428.409 124.491 428.88 124.423 429.121 124.287C429.361 124.151 429.55 123.926 429.686 123.612C429.832 123.298 429.906 122.696 429.906 121.806V116.264C429.906 114.705 429.858 113.695 429.764 113.234C429.691 112.9 429.576 112.669 429.419 112.544C429.262 112.408 429.047 112.34 428.775 112.34C428.482 112.34 428.126 112.418 427.708 112.575L427.488 112.01L431.821 110.252H432.512ZM442.283 105.95V110.675H445.643V111.774H442.283V121.1C442.283 122.031 442.414 122.659 442.675 122.984C442.948 123.308 443.293 123.471 443.712 123.471C444.057 123.471 444.392 123.366 444.716 123.157C445.041 122.937 445.292 122.618 445.47 122.199H446.082C445.716 123.225 445.198 123.999 444.528 124.522C443.858 125.035 443.167 125.292 442.456 125.292C441.974 125.292 441.503 125.161 441.043 124.899C440.582 124.627 440.242 124.245 440.022 123.753C439.802 123.251 439.693 122.481 439.693 121.445V111.774H437.416V111.256C437.992 111.026 438.578 110.639 439.174 110.095C439.781 109.54 440.32 108.886 440.791 108.132C441.032 107.734 441.367 107.007 441.796 105.95H442.283ZM447.847 110.675H454.55V111.256H454.221C453.75 111.256 453.394 111.361 453.153 111.57C452.923 111.769 452.808 112.02 452.808 112.324C452.808 112.732 452.981 113.297 453.326 114.019L456.827 121.273L460.045 113.329C460.223 112.9 460.312 112.476 460.312 112.057C460.312 111.869 460.276 111.727 460.202 111.633C460.119 111.518 459.988 111.429 459.81 111.366C459.632 111.293 459.318 111.256 458.868 111.256V110.675H463.546V111.256C463.159 111.298 462.861 111.382 462.651 111.508C462.442 111.633 462.212 111.869 461.961 112.214C461.866 112.361 461.688 112.764 461.427 113.423L455.571 127.772C455.006 129.164 454.263 130.216 453.342 130.928C452.431 131.639 451.552 131.995 450.704 131.995C450.087 131.995 449.579 131.817 449.181 131.462C448.784 131.106 448.585 130.697 448.585 130.237C448.585 129.797 448.726 129.442 449.009 129.169C449.302 128.908 449.699 128.777 450.202 128.777C450.547 128.777 451.018 128.892 451.615 129.122C452.033 129.279 452.295 129.358 452.4 129.358C452.714 129.358 453.054 129.196 453.42 128.871C453.797 128.547 454.174 127.919 454.55 126.987L455.571 124.491L450.406 113.643C450.249 113.318 449.998 112.915 449.652 112.434C449.391 112.068 449.176 111.822 449.009 111.696C448.768 111.528 448.381 111.382 447.847 111.256V110.675Z" fill="white"/>
<path d="M101.856 4.48627C100.446 3.06473 98.7689 1.93642 96.9207 1.16643C95.0725 0.396434 93.0901 0 91.0879 0C89.0858 0 87.1034 0.396434 85.2552 1.16643C83.407 1.93642 81.7295 3.06473 80.3196 4.48627L4.48627 80.3196C3.06473 81.7295 1.93641 83.407 1.16642 85.2552C0.39643 87.1034 0 89.0858 0 91.0879C0 93.0901 0.39643 95.0725 1.16642 96.9207C1.93641 98.7689 3.06473 100.446 4.48627 101.856L80.3196 177.69C81.7295 179.111 83.407 180.239 85.2552 181.009C87.1034 181.779 89.0858 182.176 91.0879 182.176C93.0901 182.176 95.0725 181.779 96.9207 181.009C98.7689 180.239 100.446 179.111 101.856 177.69C103.278 176.28 104.406 174.602 105.176 172.754C105.946 170.906 106.343 168.923 106.343 166.921C106.343 164.919 105.946 162.937 105.176 161.089C104.406 159.24 103.278 157.563 101.856 156.153L36.6396 91.0879L101.856 26.0229C103.278 24.613 104.406 22.9356 105.176 21.0874C105.946 19.2392 106.343 17.2568 106.343 15.2546C106.343 13.2524 105.946 11.2701 105.176 9.42186C104.406 7.57366 103.278 5.89621 101.856 4.48627Z" fill="white"/>
<path d="M501.486 4.48627C502.896 3.06473 504.574 1.93642 506.422 1.16643C508.27 0.396434 510.252 0 512.255 0C514.257 0 516.239 0.396434 518.087 1.16643C519.936 1.93642 521.613 3.06473 523.023 4.48627L598.856 80.3196C600.278 81.7295 601.406 83.407 602.176 85.2552C602.946 87.1034 603.343 89.0858 603.343 91.0879C603.343 93.0901 602.946 95.0725 602.176 96.9207C601.406 98.7689 600.278 100.446 598.856 101.856L523.023 177.69C521.613 179.111 519.936 180.239 518.087 181.009C516.239 181.779 514.257 182.176 512.255 182.176C510.252 182.176 508.27 181.779 506.422 181.009C504.574 180.239 502.896 179.111 501.486 177.69C500.065 176.28 498.936 174.602 498.166 172.754C497.396 170.906 497 168.923 497 166.921C497 164.919 497.396 162.937 498.166 161.089C498.936 159.24 500.065 157.563 501.486 156.153L566.703 91.0879L501.486 26.0229C500.065 24.613 498.936 22.9356 498.166 21.0874C497.396 19.2392 497 17.2568 497 15.2546C497 13.2524 497.396 11.2701 498.166 9.42186C498.936 7.57366 500.065 5.89621 501.486 4.48627Z" fill="white"/>
</svg>
