<svg width="170" height="52" viewBox="0 0 170 52" fill="none" xmlns="http://www.w3.org/2000/svg">
<path d="M50.0662 26.2413V26.0113H50.3459C50.5905 26.0113 50.777 25.974 50.9054 25.8994C51.0381 25.8207 51.1355 25.715 51.1976 25.5823C51.2349 25.4953 51.2536 25.2342 51.2536 24.799V19.2536C51.2536 18.8226 51.2308 18.5532 51.1852 18.4454C51.1396 18.3376 51.0464 18.2444 50.9054 18.1656C50.7687 18.0828 50.5822 18.0413 50.3459 18.0413H50.0662V17.8113H53.8398C54.8469 17.8113 55.6572 17.9481 56.2706 18.2216C57.0207 18.5573 57.5886 19.065 57.974 19.7447C58.3636 20.4244 58.5584 21.1933 58.5584 22.0512C58.5584 22.6439 58.4631 23.1909 58.2724 23.6924C58.0818 24.1898 57.8352 24.6022 57.5326 24.9296C57.23 25.2529 56.8798 25.514 56.482 25.7129C56.0882 25.9077 55.6054 26.059 55.0334 26.1667C54.7806 26.2165 54.3827 26.2413 53.8398 26.2413H50.0662ZM53.2803 18.29V24.8674C53.2803 25.2156 53.2969 25.429 53.33 25.5077C53.3632 25.5865 53.4191 25.6466 53.4979 25.688C53.6098 25.7502 53.7714 25.7813 53.9828 25.7813C54.6749 25.7813 55.2034 25.545 55.5681 25.0726C56.0654 24.4343 56.3141 23.4438 56.3141 22.1009C56.3141 21.0192 56.1442 20.155 55.8043 19.5085C55.5349 19.0029 55.1889 18.6589 54.7661 18.4765C54.4677 18.348 53.9724 18.2858 53.2803 18.29ZM63.2049 18.2962V21.7279H63.3727C63.9074 21.7279 64.2949 21.56 64.5353 21.2243C64.7756 20.8886 64.929 20.3934 64.9953 19.7385H65.2315V24.1525H64.9953C64.9456 23.6717 64.8399 23.278 64.6782 22.9713C64.5208 22.6646 64.3363 22.4594 64.1249 22.3558C63.9136 22.248 63.6069 22.1942 63.2049 22.1942V24.569C63.2049 25.0332 63.2235 25.3171 63.2608 25.4207C63.3023 25.5243 63.3769 25.6093 63.4846 25.6756C63.5924 25.7419 63.7664 25.7751 64.0068 25.7751H64.5104C65.2979 25.7751 65.9278 25.5927 66.4003 25.228C66.8769 24.8633 67.2189 24.3079 67.4261 23.5619H67.6561L67.2769 26.2413H59.9907V26.0113H60.2705C60.515 26.0113 60.7119 25.9678 60.8611 25.8808C60.9689 25.8227 61.0518 25.7233 61.1098 25.5823C61.1554 25.4829 61.1782 25.2218 61.1782 24.799V19.2536C61.1782 18.8723 61.1678 18.6381 61.1471 18.5511C61.1056 18.406 61.029 18.2941 60.9171 18.2154C60.7596 18.0993 60.544 18.0413 60.2705 18.0413H59.9907V17.8113H67.0469V20.3042H66.8106C66.6904 19.695 66.5205 19.2577 66.3008 18.9925C66.0853 18.7272 65.7786 18.5324 65.3807 18.4081C65.1487 18.3335 64.7135 18.2962 64.0752 18.2962H63.2049ZM77.9288 17.8113V18.0413C77.6221 18.091 77.3486 18.2548 77.1082 18.5324C76.9341 18.7397 76.6751 19.2267 76.3311 19.9934L73.4278 26.4341H73.2227L70.3318 19.7323C69.9837 18.9241 69.7495 18.4496 69.6293 18.3086C69.5133 18.1677 69.2916 18.0786 68.9641 18.0413V17.8113H73.0051V18.0413H72.8683C72.5036 18.0413 72.2549 18.0869 72.1223 18.1781C72.027 18.2403 71.9793 18.3314 71.9793 18.4516C71.9793 18.5262 71.9959 18.6153 72.029 18.7189C72.0622 18.8184 72.1741 19.0899 72.3648 19.5334L74.1614 23.7297L75.8275 19.9934C76.0265 19.5416 76.1487 19.2391 76.1943 19.0857C76.2399 18.9324 76.2627 18.8018 76.2627 18.6941C76.2627 18.5697 76.2296 18.4599 76.1632 18.3646C76.0969 18.2693 75.9995 18.1967 75.8711 18.147C75.6928 18.0765 75.4566 18.0413 75.1623 18.0413V17.8113H77.9288ZM90.784 17.6186V20.5405H90.5416C90.3592 19.7779 90.0194 19.1935 89.522 18.7873C89.0247 18.3812 88.461 18.1781 87.831 18.1781C87.3047 18.1781 86.8218 18.3294 86.3825 18.6319C85.9432 18.9345 85.622 19.3303 85.4189 19.8193C85.1578 20.4452 85.0272 21.1414 85.0272 21.9082C85.0272 22.6625 85.1226 23.3505 85.3132 23.9722C85.5039 24.5897 85.8023 25.0581 86.2084 25.3772C86.6146 25.6922 87.141 25.8497 87.7875 25.8497C88.318 25.8497 88.8029 25.7336 89.2422 25.5015C89.6857 25.2694 90.152 24.8695 90.641 24.3017V25.029C90.1686 25.5223 89.6754 25.8808 89.1614 26.1046C88.6516 26.3242 88.0548 26.4341 87.371 26.4341C86.4716 26.4341 85.6717 26.2538 84.9713 25.8932C84.275 25.5326 83.7362 25.0145 83.3549 24.339C82.9777 23.6634 82.7892 22.9443 82.7892 22.1817C82.7892 21.3777 82.9985 20.6151 83.4171 19.8939C83.8398 19.1728 84.4076 18.6133 85.1205 18.2154C85.8375 17.8175 86.598 17.6186 87.4021 17.6186C87.9947 17.6186 88.6206 17.747 89.2796 18.004C89.6609 18.1532 89.9033 18.2278 90.0069 18.2278C90.1395 18.2278 90.2535 18.1802 90.3488 18.0848C90.4483 17.9854 90.5126 17.8299 90.5416 17.6186H90.784ZM97.0407 17.6932C98.3835 17.6434 99.4735 18.0351 100.311 18.8682C101.152 19.7012 101.573 20.7436 101.573 21.9952C101.573 23.0645 101.26 24.0053 100.634 24.8177C99.8051 25.8953 98.6342 26.4341 97.1215 26.4341C95.6046 26.4341 94.4317 25.9201 93.6027 24.8923C92.9479 24.0799 92.6205 23.1163 92.6205 22.0014C92.6205 20.7498 93.0453 19.7074 93.8949 18.8744C94.7487 18.0372 95.7973 17.6434 97.0407 17.6932ZM97.1153 18.091C96.3444 18.091 95.7579 18.4848 95.3559 19.2722C95.0285 19.9188 94.8648 20.8472 94.8648 22.0574C94.8648 23.4956 95.1176 24.5586 95.6232 25.2466C95.9755 25.7274 96.4687 25.9678 97.1028 25.9678C97.5297 25.9678 97.8862 25.8642 98.1721 25.6569C98.5368 25.3917 98.8208 24.969 99.0238 24.3887C99.2269 23.8043 99.3285 23.0438 99.3285 22.1071C99.3285 20.9922 99.2248 20.1592 99.0176 19.608C98.8104 19.0526 98.5451 18.6609 98.2219 18.433C97.9027 18.205 97.5339 18.091 97.1153 18.091ZM102.837 26.2413V26.0113H103.117C103.362 26.0113 103.548 25.974 103.677 25.8994C103.809 25.8207 103.907 25.715 103.969 25.5823C104.006 25.4953 104.025 25.2342 104.025 24.799V19.2536C104.025 18.8226 104.002 18.5532 103.956 18.4454C103.911 18.3376 103.817 18.2444 103.677 18.1656C103.54 18.0828 103.353 18.0413 103.117 18.0413H102.837V17.8113H106.611C107.618 17.8113 108.428 17.9481 109.042 18.2216C109.792 18.5573 110.36 19.065 110.745 19.7447C111.135 20.4244 111.329 21.1933 111.329 22.0512C111.329 22.6439 111.234 23.1909 111.043 23.6924C110.853 24.1898 110.606 24.6022 110.304 24.9296C110.001 25.2529 109.651 25.514 109.253 25.7129C108.859 25.9077 108.376 26.059 107.805 26.1667C107.552 26.2165 107.154 26.2413 106.611 26.2413H102.837ZM106.051 18.29V24.8674C106.051 25.2156 106.068 25.429 106.101 25.5077C106.134 25.5865 106.19 25.6466 106.269 25.688C106.381 25.7502 106.542 25.7813 106.754 25.7813C107.446 25.7813 107.974 25.545 108.339 25.0726C108.837 24.4343 109.085 23.4438 109.085 22.1009C109.085 21.0192 108.915 20.155 108.575 19.5085C108.306 19.0029 107.96 18.6589 107.537 18.4765C107.239 18.348 106.743 18.2858 106.051 18.29ZM115.976 18.2962V21.7279H116.144C116.678 21.7279 117.066 21.56 117.306 21.2243C117.547 20.8886 117.7 20.3934 117.766 19.7385H118.003V24.1525H117.766C117.717 23.6717 117.611 23.278 117.449 22.9713C117.292 22.6646 117.107 22.4594 116.896 22.3558C116.685 22.248 116.378 22.1942 115.976 22.1942V24.569C115.976 25.0332 115.995 25.3171 116.032 25.4207C116.073 25.5243 116.148 25.6093 116.256 25.6756C116.363 25.7419 116.538 25.7751 116.778 25.7751H117.281C118.069 25.7751 118.699 25.5927 119.171 25.228C119.648 24.8633 119.99 24.3079 120.197 23.5619H120.427L120.048 26.2413H112.762V26.0113H113.042C113.286 26.0113 113.483 25.9678 113.632 25.8808C113.74 25.8227 113.823 25.7233 113.881 25.5823C113.926 25.4829 113.949 25.2218 113.949 24.799V19.2536C113.949 18.8723 113.939 18.6381 113.918 18.5511C113.877 18.406 113.8 18.2941 113.688 18.2154C113.531 18.0993 113.315 18.0413 113.042 18.0413H112.762V17.8113H119.818V20.3042H119.582C119.462 19.695 119.292 19.2577 119.072 18.9925C118.856 18.7272 118.55 18.5324 118.152 18.4081C117.92 18.3335 117.485 18.2962 116.846 18.2962H115.976Z" fill="white"/>
<path d="M42.5985 35.7626C42.4009 35.9691 42.2077 36.118 42.019 36.2094C41.8302 36.2979 41.6268 36.3421 41.4085 36.3421C40.9662 36.3421 40.5799 36.1578 40.2496 35.7892C39.9193 35.4176 39.7541 34.9413 39.7541 34.3604C39.7541 33.7794 39.937 33.2486 40.3027 32.7679C40.6683 32.2843 41.1387 32.0425 41.7138 32.0425C42.0706 32.0425 42.3655 32.156 42.5985 32.3831V31.6355C42.5985 31.1725 42.5867 30.8879 42.5631 30.7817C42.5424 30.6756 42.5085 30.6033 42.4613 30.565C42.4142 30.5267 42.3552 30.5075 42.2844 30.5075C42.2077 30.5075 42.106 30.5311 41.9792 30.5783L41.9217 30.4234L43.1293 29.928H43.3283V34.6125C43.3283 35.0873 43.3387 35.3778 43.3593 35.484C43.3829 35.5872 43.4183 35.6594 43.4655 35.7007C43.5156 35.742 43.5731 35.7626 43.638 35.7626C43.7176 35.7626 43.8238 35.7376 43.9565 35.6874L44.0051 35.8423L42.8019 36.3421H42.5985V35.7626ZM42.5985 35.453V33.3651C42.5808 33.1646 42.5277 32.9817 42.4392 32.8166C42.3507 32.6514 42.2328 32.5276 42.0853 32.445C41.9408 32.3595 41.7993 32.3167 41.6607 32.3167C41.4012 32.3167 41.1697 32.4332 40.9662 32.6662C40.6978 32.9729 40.5636 33.4211 40.5636 34.0109C40.5636 34.6066 40.6934 35.0637 40.9529 35.3822C41.2124 35.6978 41.5014 35.8555 41.8199 35.8555C42.0883 35.8555 42.3478 35.7214 42.5985 35.453ZM45.4003 33.6924C45.3974 34.294 45.5434 34.7659 45.8383 35.108C46.1332 35.45 46.4797 35.6211 46.8778 35.6211C47.1432 35.6211 47.3732 35.5488 47.5679 35.4043C47.7654 35.2569 47.9306 35.0062 48.0633 34.6523L48.2004 34.7408C48.1385 35.1448 47.9586 35.5134 47.6607 35.8467C47.3629 36.177 46.9898 36.3421 46.5416 36.3421C46.055 36.3421 45.6377 36.1534 45.2897 35.7759C44.9447 35.3955 44.7722 34.8853 44.7722 34.2454C44.7722 33.5524 44.9491 33.0127 45.303 32.6264C45.6598 32.2371 46.1066 32.0425 46.6433 32.0425C47.0975 32.0425 47.4705 32.1929 47.7625 32.4937C48.0544 32.7915 48.2004 33.1911 48.2004 33.6924H45.4003ZM45.4003 33.4359H47.2759C47.2612 33.1764 47.2302 32.9935 47.183 32.8873C47.1093 32.7222 46.9987 32.5924 46.8512 32.4981C46.7067 32.4037 46.5549 32.3565 46.3956 32.3565C46.1509 32.3565 45.9311 32.4524 45.7365 32.6441C45.5448 32.8328 45.4328 33.0967 45.4003 33.4359ZM48.9896 32.1663H50.8961V32.33H50.7723C50.6572 32.33 50.5688 32.358 50.5068 32.414C50.4479 32.4701 50.4184 32.5453 50.4184 32.6396C50.4184 32.7428 50.4493 32.8652 50.5113 33.0068L51.4535 35.2451L52.4001 32.9227C52.4679 32.7576 52.5019 32.6323 52.5019 32.5467C52.5019 32.5054 52.4901 32.4715 52.4665 32.445C52.434 32.4008 52.3927 32.3713 52.3426 32.3565C52.2925 32.3388 52.1907 32.33 52.0374 32.33V32.1663H53.36V32.33C53.2067 32.3418 53.1005 32.3727 53.0415 32.4229C52.9383 32.5113 52.8454 32.6588 52.7628 32.8652L51.3252 36.3421H51.1438L49.6973 32.9227C49.6325 32.7635 49.5705 32.65 49.5116 32.5821C49.4526 32.5113 49.3774 32.4524 49.286 32.4052C49.2358 32.3786 49.137 32.3536 48.9896 32.33V32.1663ZM54.8614 33.6924C54.8584 34.294 55.0044 34.7659 55.2993 35.108C55.5942 35.45 55.9407 35.6211 56.3388 35.6211C56.6042 35.6211 56.8343 35.5488 57.0289 35.4043C57.2265 35.2569 57.3916 35.0062 57.5243 34.6523L57.6615 34.7408C57.5995 35.1448 57.4196 35.5134 57.1218 35.8467C56.8239 36.177 56.4509 36.3421 56.0026 36.3421C55.516 36.3421 55.0988 36.1534 54.7508 35.7759C54.4057 35.3955 54.2332 34.8853 54.2332 34.2454C54.2332 33.5524 54.4102 33.0127 54.764 32.6264C55.1209 32.2371 55.5677 32.0425 56.1044 32.0425C56.5585 32.0425 56.9316 32.1929 57.2235 32.4937C57.5155 32.7915 57.6615 33.1911 57.6615 33.6924H54.8614ZM54.8614 33.4359H56.7369C56.7222 33.1764 56.6912 32.9935 56.644 32.8873C56.5703 32.7222 56.4597 32.5924 56.3123 32.4981C56.1678 32.4037 56.0159 32.3565 55.8567 32.3565C55.6119 32.3565 55.3922 32.4524 55.1975 32.6441C55.0059 32.8328 54.8938 33.0967 54.8614 33.4359ZM60.0519 29.928V35.3026C60.0519 35.5562 60.0696 35.7243 60.105 35.8069C60.1433 35.8894 60.2009 35.9529 60.2775 35.9971C60.3542 36.0384 60.4972 36.059 60.7066 36.059V36.2183H58.7204V36.059C58.9062 36.059 59.033 36.0398 59.1009 36.0015C59.1687 35.9632 59.2218 35.8998 59.2601 35.8113C59.2985 35.7228 59.3176 35.5533 59.3176 35.3026V31.6222C59.3176 31.1651 59.3073 30.885 59.2867 30.7817C59.266 30.6756 59.2321 30.6033 59.1849 30.565C59.1407 30.5267 59.0832 30.5075 59.0124 30.5075C58.9357 30.5075 58.8384 30.5311 58.7204 30.5783L58.6452 30.4234L59.8529 29.928H60.0519ZM63.6146 32.0469C64.228 32.0469 64.7205 32.2798 65.0921 32.7458C65.4076 33.1439 65.5654 33.601 65.5654 34.1171C65.5654 34.4798 65.4784 34.847 65.3044 35.2185C65.1304 35.5901 64.8901 35.8703 64.5834 36.059C64.2796 36.2478 63.9405 36.3421 63.566 36.3421C62.9555 36.3421 62.4704 36.0988 62.1106 35.6122C61.8069 35.2023 61.655 34.7423 61.655 34.2321C61.655 33.8605 61.7464 33.4919 61.9293 33.1262C62.1151 32.7576 62.3584 32.4863 62.6592 32.3123C62.96 32.1353 63.2784 32.0469 63.6146 32.0469ZM63.4775 32.3344C63.3212 32.3344 63.1634 32.3816 63.0042 32.476C62.8479 32.5674 62.7211 32.7296 62.6238 32.9625C62.5264 33.1955 62.4778 33.4948 62.4778 33.8605C62.4778 34.4503 62.5943 34.959 62.8272 35.3866C63.0632 35.8142 63.3728 36.0281 63.7562 36.0281C64.0422 36.0281 64.2782 35.9101 64.464 35.6742C64.6497 35.4382 64.7426 35.0328 64.7426 34.4577C64.7426 33.7381 64.5878 33.1719 64.2782 32.7591C64.0688 32.476 63.8019 32.3344 63.4775 32.3344ZM66.3236 32.5689L67.571 32.0646H67.7391V33.0112C67.9485 32.6544 68.1579 32.4052 68.3673 32.2636C68.5796 32.1191 68.8022 32.0469 69.0352 32.0469C69.4422 32.0469 69.7813 32.2061 70.0526 32.5246C70.3859 32.9139 70.5525 33.4211 70.5525 34.0463C70.5525 34.7452 70.352 35.3232 69.9509 35.7803C69.6206 36.1549 69.2048 36.3421 68.7035 36.3421C68.4852 36.3421 68.2965 36.3112 68.1372 36.2492C68.0193 36.205 67.8866 36.1165 67.7391 35.9838V37.218C67.7391 37.4952 67.7553 37.6707 67.7878 37.7444C67.8232 37.8211 67.8822 37.8815 67.9647 37.9257C68.0502 37.97 68.2036 37.9921 68.4248 37.9921V38.1558H66.3015V37.9921H66.4121C66.5743 37.995 66.7129 37.9641 66.8279 37.8992C66.8839 37.8668 66.9267 37.8137 66.9562 37.74C66.9886 37.6692 67.0048 37.4863 67.0048 37.1914V33.3607C67.0048 33.0982 66.993 32.9316 66.9694 32.8608C66.9458 32.79 66.9075 32.7369 66.8544 32.7016C66.8043 32.6662 66.735 32.6485 66.6465 32.6485C66.5757 32.6485 66.4858 32.6691 66.3767 32.7104L66.3236 32.5689ZM67.7391 33.2722V34.785C67.7391 35.1124 67.7524 35.3277 67.7789 35.4309C67.8202 35.6019 67.9205 35.7523 68.0797 35.8821C68.2419 36.0118 68.4454 36.0767 68.6902 36.0767C68.9851 36.0767 69.224 35.9617 69.4068 35.7317C69.6457 35.4309 69.7651 35.0077 69.7651 34.4621C69.7651 33.8428 69.6294 33.3666 69.3581 33.0333C69.1694 32.8033 68.9453 32.6883 68.6858 32.6883C68.5442 32.6883 68.4041 32.7237 68.2655 32.7945C68.1594 32.8475 67.9839 33.0068 67.7391 33.2722ZM72.2794 33.6924C72.2765 34.294 72.4225 34.7659 72.7174 35.108C73.0123 35.45 73.3588 35.6211 73.7569 35.6211C74.0223 35.6211 74.2523 35.5488 74.447 35.4043C74.6445 35.2569 74.8097 35.0062 74.9424 34.6523L75.0795 34.7408C75.0176 35.1448 74.8377 35.5134 74.5399 35.8467C74.242 36.177 73.869 36.3421 73.4207 36.3421C72.9341 36.3421 72.5168 36.1534 72.1688 35.7759C71.8238 35.3955 71.6513 34.8853 71.6513 34.2454C71.6513 33.5524 71.8282 33.0127 72.1821 32.6264C72.5389 32.2371 72.9857 32.0425 73.5224 32.0425C73.9766 32.0425 74.3496 32.1929 74.6416 32.4937C74.9335 32.7915 75.0795 33.1911 75.0795 33.6924H72.2794ZM72.2794 33.4359H74.155C74.1403 33.1764 74.1093 32.9935 74.0621 32.8873C73.9884 32.7222 73.8778 32.5924 73.7304 32.4981C73.5858 32.4037 73.434 32.3565 73.2747 32.3565C73.03 32.3565 72.8103 32.4524 72.6156 32.6441C72.4239 32.8328 72.3119 33.0967 72.2794 33.4359ZM77.2621 32.0469V32.9581C77.6012 32.3506 77.9492 32.0469 78.306 32.0469C78.4682 32.0469 78.6024 32.097 78.7086 32.1973C78.8148 32.2946 78.8678 32.4081 78.8678 32.5379C78.8678 32.6529 78.8295 32.7502 78.7528 32.8298C78.6761 32.9095 78.5847 32.9493 78.4786 32.9493C78.3753 32.9493 78.2589 32.8991 78.1291 32.7989C78.0023 32.6957 77.9079 32.6441 77.846 32.6441C77.7929 32.6441 77.7354 32.6735 77.6735 32.7325C77.5408 32.8534 77.4036 33.0525 77.2621 33.3297V35.2716C77.2621 35.4958 77.2901 35.6653 77.3461 35.7803C77.3845 35.86 77.4523 35.9263 77.5496 35.9794C77.6469 36.0325 77.787 36.059 77.9699 36.059V36.2183H75.8952V36.059C76.1017 36.059 76.255 36.0266 76.3553 35.9617C76.429 35.9145 76.4806 35.8393 76.5101 35.7361C76.5248 35.686 76.5322 35.5429 76.5322 35.307V33.7367C76.5322 33.2648 76.5219 32.9847 76.5012 32.8962C76.4836 32.8048 76.4482 32.7384 76.3951 32.6971C76.3449 32.6558 76.2815 32.6352 76.2049 32.6352C76.1135 32.6352 76.0102 32.6573 75.8952 32.7016L75.851 32.5423L77.0763 32.0469H77.2621ZM82.1651 32.0469V33.427H82.0192C81.9071 32.9935 81.7626 32.6986 81.5856 32.5423C81.4117 32.386 81.189 32.3079 80.9177 32.3079C80.7113 32.3079 80.5446 32.3624 80.4178 32.4715C80.291 32.5806 80.2276 32.7016 80.2276 32.8343C80.2276 32.9994 80.2748 33.141 80.3692 33.2589C80.4606 33.3798 80.6464 33.5081 80.9265 33.6438L81.5724 33.9578C82.171 34.2498 82.4703 34.6346 82.4703 35.1124C82.4703 35.481 82.3303 35.7789 82.0501 36.0059C81.7729 36.2301 81.4618 36.3421 81.1168 36.3421C80.869 36.3421 80.5859 36.2979 80.2674 36.2094C80.1701 36.1799 80.0905 36.1652 80.0286 36.1652C79.9607 36.1652 79.9077 36.2035 79.8693 36.2802H79.7233V34.8337H79.8693C79.9519 35.2466 80.1097 35.5577 80.3426 35.7671C80.5756 35.9764 80.8366 36.0811 81.1256 36.0811C81.3291 36.0811 81.4942 36.0222 81.621 35.9042C81.7508 35.7833 81.8157 35.6388 81.8157 35.4707C81.8157 35.2672 81.7434 35.0962 81.5989 34.9576C81.4574 34.819 81.1728 34.6435 80.7452 34.4312C80.3176 34.2188 80.0374 34.0271 79.9047 33.8561C79.772 33.688 79.7056 33.4757 79.7056 33.2191C79.7056 32.8859 79.8192 32.6072 80.0463 32.3831C80.2763 32.1589 80.5727 32.0469 80.9354 32.0469C81.0946 32.0469 81.2878 32.0808 81.5149 32.1486C81.6653 32.1929 81.7655 32.215 81.8157 32.215C81.8629 32.215 81.8997 32.2046 81.9263 32.184C81.9528 32.1634 81.9838 32.1177 82.0192 32.0469H82.1651ZM89.6887 34.6789C89.5795 35.2126 89.3657 35.624 89.0472 35.913C88.7288 36.1991 88.3763 36.3421 87.99 36.3421C87.53 36.3421 87.1289 36.149 86.7868 35.7626C86.4447 35.3763 86.2737 34.8543 86.2737 34.1967C86.2737 33.5597 86.4624 33.0422 86.8399 32.6441C87.2203 32.2459 87.676 32.0469 88.2068 32.0469C88.6049 32.0469 88.9322 32.153 89.1888 32.3654C89.4454 32.5748 89.5736 32.793 89.5736 33.0201C89.5736 33.1321 89.5368 33.2235 89.4631 33.2943C89.3923 33.3621 89.292 33.3961 89.1623 33.3961C88.9883 33.3961 88.857 33.34 88.7686 33.228C88.7184 33.166 88.6845 33.0481 88.6668 32.8741C88.6521 32.7001 88.5931 32.5674 88.4899 32.476C88.3867 32.3875 88.2436 32.3433 88.0608 32.3433C87.7659 32.3433 87.5285 32.4524 87.3486 32.6706C87.1097 32.9596 86.9903 33.3415 86.9903 33.8163C86.9903 34.2999 87.1083 34.7275 87.3442 35.0991C87.5831 35.4677 87.9045 35.6521 88.3085 35.6521C88.5975 35.6521 88.857 35.5533 89.0871 35.3557C89.2493 35.22 89.407 34.9738 89.5604 34.6169L89.6887 34.6789ZM92.7073 32.0469C93.3207 32.0469 93.8132 32.2798 94.1847 32.7458C94.5003 33.1439 94.658 33.601 94.658 34.1171C94.658 34.4798 94.5711 34.847 94.3971 35.2185C94.2231 35.5901 93.9827 35.8703 93.676 36.059C93.3723 36.2478 93.0331 36.3421 92.6586 36.3421C92.0482 36.3421 91.5631 36.0988 91.2033 35.6122C90.8995 35.2023 90.7477 34.7423 90.7477 34.2321C90.7477 33.8605 90.8391 33.4919 91.0219 33.1262C91.2077 32.7576 91.451 32.4863 91.7518 32.3123C92.0526 32.1353 92.3711 32.0469 92.7073 32.0469ZM92.5701 32.3344C92.4138 32.3344 92.2561 32.3816 92.0968 32.476C91.9405 32.5674 91.8137 32.7296 91.7164 32.9625C91.6191 33.1955 91.5704 33.4948 91.5704 33.8605C91.5704 34.4503 91.6869 34.959 91.9199 35.3866C92.1558 35.8142 92.4655 36.0281 92.8488 36.0281C93.1349 36.0281 93.3708 35.9101 93.5566 35.6742C93.7424 35.4382 93.8353 35.0328 93.8353 34.4577C93.8353 33.7381 93.6804 33.1719 93.3708 32.7591C93.1614 32.476 92.8945 32.3344 92.5701 32.3344ZM96.9114 32.9095C97.2063 32.6146 97.3803 32.445 97.4334 32.4008C97.5661 32.2887 97.7091 32.2017 97.8624 32.1398C98.0158 32.0778 98.1677 32.0469 98.3181 32.0469C98.5717 32.0469 98.7899 32.1206 98.9728 32.2681C99.1556 32.4155 99.278 32.6293 99.3399 32.9095C99.6437 32.5556 99.9002 32.3241 100.11 32.215C100.319 32.1029 100.534 32.0469 100.755 32.0469C100.971 32.0469 101.161 32.1029 101.326 32.215C101.494 32.3241 101.627 32.504 101.724 32.7546C101.789 32.9257 101.822 33.194 101.822 33.5597V35.3026C101.822 35.5562 101.841 35.7302 101.879 35.8246C101.909 35.8894 101.963 35.9455 102.043 35.9927C102.122 36.0369 102.252 36.059 102.432 36.059V36.2183H100.433V36.059H100.517C100.691 36.059 100.826 36.0251 100.924 35.9573C100.991 35.9101 101.04 35.8349 101.07 35.7317C101.081 35.6815 101.087 35.5385 101.087 35.3026V33.5597C101.087 33.2294 101.047 32.9965 100.968 32.8608C100.853 32.6721 100.668 32.5777 100.415 32.5777C100.259 32.5777 100.101 32.6175 99.9415 32.6971C99.7852 32.7738 99.595 32.9183 99.3709 33.1306L99.362 33.1793L99.3709 33.3695V35.3026C99.3709 35.5798 99.3856 35.7523 99.4151 35.8201C99.4475 35.888 99.5065 35.9455 99.592 35.9927C99.6776 36.0369 99.8235 36.059 100.03 36.059V36.2183H97.9819V36.059C98.206 36.059 98.3594 36.0325 98.4419 35.9794C98.5275 35.9263 98.5864 35.8467 98.6189 35.7405C98.6336 35.6904 98.641 35.5444 98.641 35.3026V33.5597C98.641 33.2294 98.5923 32.992 98.495 32.8475C98.3653 32.6588 98.1839 32.5644 97.9509 32.5644C97.7917 32.5644 97.6339 32.6072 97.4776 32.6927C97.2328 32.8225 97.0441 32.9684 96.9114 33.1306V35.3026C96.9114 35.568 96.9291 35.7405 96.9645 35.8201C97.0028 35.8998 97.0574 35.9602 97.1281 36.0015C97.2019 36.0398 97.3493 36.059 97.5705 36.059V36.2183H95.5666V36.059C95.7524 36.059 95.8822 36.0398 95.9559 36.0015C96.0296 35.9602 96.0857 35.8968 96.124 35.8113C96.1623 35.7228 96.1815 35.5533 96.1815 35.3026V33.7544C96.1815 33.3091 96.1682 33.0215 96.1417 32.8918C96.1211 32.7945 96.0886 32.7281 96.0444 32.6927C96.0001 32.6544 95.9397 32.6352 95.863 32.6352C95.7804 32.6352 95.6817 32.6573 95.5666 32.7016L95.5003 32.5423L96.7212 32.0469H96.9114V32.9095ZM104.415 32.9095C104.71 32.6146 104.884 32.445 104.937 32.4008C105.07 32.2887 105.213 32.2017 105.367 32.1398C105.52 32.0778 105.672 32.0469 105.822 32.0469C106.076 32.0469 106.294 32.1206 106.477 32.2681C106.66 32.4155 106.782 32.6293 106.844 32.9095C107.148 32.5556 107.404 32.3241 107.614 32.215C107.823 32.1029 108.038 32.0469 108.26 32.0469C108.475 32.0469 108.665 32.1029 108.83 32.215C108.998 32.3241 109.131 32.504 109.228 32.7546C109.293 32.9257 109.326 33.194 109.326 33.5597V35.3026C109.326 35.5562 109.345 35.7302 109.383 35.8246C109.413 35.8894 109.467 35.9455 109.547 35.9927C109.626 36.0369 109.756 36.059 109.936 36.059V36.2183H107.937V36.059H108.021C108.195 36.059 108.33 36.0251 108.428 35.9573C108.495 35.9101 108.544 35.8349 108.574 35.7317C108.585 35.6815 108.591 35.5385 108.591 35.3026V33.5597C108.591 33.2294 108.551 32.9965 108.472 32.8608C108.357 32.6721 108.173 32.5777 107.919 32.5777C107.763 32.5777 107.605 32.6175 107.446 32.6971C107.289 32.7738 107.099 32.9183 106.875 33.1306L106.866 33.1793L106.875 33.3695V35.3026C106.875 35.5798 106.89 35.7523 106.919 35.8201C106.952 35.888 107.011 35.9455 107.096 35.9927C107.182 36.0369 107.328 36.059 107.534 36.059V36.2183H105.486V36.059C105.71 36.059 105.863 36.0325 105.946 35.9794C106.032 35.9263 106.09 35.8467 106.123 35.7405C106.138 35.6904 106.145 35.5444 106.145 35.3026V33.5597C106.145 33.2294 106.096 32.992 105.999 32.8475C105.869 32.6588 105.688 32.5644 105.455 32.5644C105.296 32.5644 105.138 32.6072 104.982 32.6927C104.737 32.8225 104.548 32.9684 104.415 33.1306V35.3026C104.415 35.568 104.433 35.7405 104.469 35.8201C104.507 35.8998 104.561 35.9602 104.632 36.0015C104.706 36.0398 104.853 36.059 105.075 36.059V36.2183H103.071V36.059C103.256 36.059 103.386 36.0398 103.46 36.0015C103.534 35.9602 103.59 35.8968 103.628 35.8113C103.666 35.7228 103.686 35.5533 103.686 35.3026V33.7544C103.686 33.3091 103.672 33.0215 103.646 32.8918C103.625 32.7945 103.593 32.7281 103.548 32.6927C103.504 32.6544 103.444 32.6352 103.367 32.6352C103.285 32.6352 103.186 32.6573 103.071 32.7016L103.004 32.5423L104.225 32.0469H104.415V32.9095ZM114.268 32.1663V34.6214C114.268 35.0903 114.279 35.3778 114.299 35.484C114.323 35.5872 114.358 35.6594 114.406 35.7007C114.456 35.742 114.513 35.7626 114.578 35.7626C114.669 35.7626 114.773 35.7376 114.888 35.6874L114.95 35.8423L113.738 36.3421H113.539V35.484C113.191 35.8614 112.925 36.0988 112.742 36.1961C112.559 36.2935 112.366 36.3421 112.163 36.3421C111.936 36.3421 111.738 36.2772 111.57 36.1475C111.405 36.0148 111.29 35.8452 111.225 35.6388C111.16 35.4323 111.128 35.1404 111.128 34.7629V32.9537C111.128 32.762 111.107 32.6293 111.066 32.5556C111.024 32.4819 110.963 32.4258 110.88 32.3875C110.8 32.3462 110.654 32.327 110.442 32.33V32.1663H111.862V34.8779C111.862 35.2554 111.927 35.5031 112.057 35.6211C112.189 35.739 112.349 35.798 112.534 35.798C112.661 35.798 112.804 35.7582 112.963 35.6786C113.126 35.599 113.317 35.4471 113.539 35.223V32.9272C113.539 32.6971 113.496 32.5423 113.41 32.4627C113.328 32.3801 113.154 32.3359 112.888 32.33V32.1663H114.268ZM116.88 32.905C117.355 32.3329 117.808 32.0469 118.238 32.0469C118.459 32.0469 118.649 32.1029 118.809 32.215C118.968 32.3241 119.095 32.5054 119.189 32.7591C119.254 32.936 119.286 33.2073 119.286 33.573V35.3026C119.286 35.5592 119.307 35.7331 119.348 35.8246C119.381 35.8983 119.432 35.9558 119.503 35.9971C119.577 36.0384 119.711 36.059 119.906 36.059V36.2183H117.902V36.059H117.986C118.175 36.059 118.306 36.031 118.38 35.975C118.456 35.916 118.509 35.8305 118.539 35.7184C118.551 35.6742 118.557 35.5356 118.557 35.3026V33.6438C118.557 33.2751 118.508 33.0083 118.411 32.8431C118.316 32.675 118.156 32.591 117.928 32.591C117.578 32.591 117.228 32.7827 116.88 33.166V35.3026C116.88 35.5769 116.896 35.7464 116.929 35.8113C116.97 35.8968 117.026 35.9602 117.097 36.0015C117.171 36.0398 117.318 36.059 117.539 36.059V36.2183H115.535V36.059H115.624C115.83 36.059 115.969 36.0074 116.04 35.9042C116.113 35.798 116.15 35.5975 116.15 35.3026V33.7986C116.15 33.312 116.138 33.0156 116.115 32.9095C116.094 32.8033 116.06 32.731 116.013 32.6927C115.969 32.6544 115.908 32.6352 115.832 32.6352C115.749 32.6352 115.65 32.6573 115.535 32.7016L115.469 32.5423L116.69 32.0469H116.88V32.905ZM121.712 29.928C121.836 29.928 121.941 29.9722 122.026 30.0607C122.115 30.1462 122.159 30.2509 122.159 30.3748C122.159 30.4986 122.115 30.6048 122.026 30.6933C121.941 30.7817 121.836 30.826 121.712 30.826C121.588 30.826 121.482 30.7817 121.394 30.6933C121.305 30.6048 121.261 30.4986 121.261 30.3748C121.261 30.2509 121.304 30.1462 121.389 30.0607C121.478 29.9722 121.586 29.928 121.712 29.928ZM122.079 32.0469V35.3026C122.079 35.5562 122.097 35.7258 122.133 35.8113C122.171 35.8939 122.225 35.9558 122.296 35.9971C122.37 36.0384 122.503 36.059 122.694 36.059V36.2183H120.726V36.059C120.923 36.059 121.056 36.0398 121.124 36.0015C121.192 35.9632 121.245 35.8998 121.283 35.8113C121.325 35.7228 121.345 35.5533 121.345 35.3026V33.7411C121.345 33.3017 121.332 33.0171 121.305 32.8873C121.285 32.793 121.252 32.7281 121.208 32.6927C121.164 32.6544 121.103 32.6352 121.027 32.6352C120.944 32.6352 120.844 32.6573 120.726 32.7016L120.664 32.5423L121.885 32.0469H122.079ZM124.833 30.8348V32.1663H125.779V32.476H124.833V35.1035C124.833 35.366 124.87 35.5429 124.943 35.6344C125.02 35.7258 125.117 35.7715 125.235 35.7715C125.333 35.7715 125.427 35.742 125.518 35.683C125.61 35.6211 125.681 35.5311 125.731 35.4132H125.903C125.8 35.7022 125.654 35.9204 125.465 36.0679C125.277 36.2124 125.082 36.2846 124.881 36.2846C124.746 36.2846 124.613 36.2478 124.483 36.174C124.353 36.0974 124.258 35.9897 124.196 35.8511C124.134 35.7096 124.103 35.4928 124.103 35.2009V32.476H123.461V32.33C123.624 32.2651 123.789 32.156 123.957 32.0026C124.128 31.8463 124.28 31.662 124.412 31.4497C124.48 31.3376 124.575 31.1327 124.696 30.8348H124.833ZM126.4 32.1663H128.289V32.33H128.196C128.064 32.33 127.963 32.3595 127.896 32.4185C127.831 32.4745 127.798 32.5453 127.798 32.6308C127.798 32.7458 127.847 32.905 127.944 33.1085L128.931 35.1522L129.837 32.9139C129.888 32.793 129.913 32.6735 129.913 32.5556C129.913 32.5025 129.902 32.4627 129.882 32.4361C129.858 32.4037 129.821 32.3786 129.771 32.3609C129.721 32.3403 129.633 32.33 129.506 32.33V32.1663H130.824V32.33C130.715 32.3418 130.631 32.3654 130.572 32.4008C130.513 32.4361 130.448 32.5025 130.377 32.5998C130.351 32.6411 130.3 32.7546 130.227 32.9404L128.577 36.9835C128.418 37.3758 128.208 37.6721 127.949 37.8727C127.692 38.0732 127.444 38.1735 127.205 38.1735C127.031 38.1735 126.888 38.1233 126.776 38.0231C126.664 37.9228 126.608 37.8078 126.608 37.678C126.608 37.5542 126.648 37.4539 126.728 37.3772C126.81 37.3035 126.922 37.2666 127.064 37.2666C127.161 37.2666 127.294 37.2991 127.462 37.364C127.58 37.4082 127.654 37.4303 127.683 37.4303C127.772 37.4303 127.868 37.3846 127.971 37.2932C128.077 37.2018 128.183 37.0248 128.289 36.7624L128.577 36.059L127.121 33.0024C127.077 32.9109 127.006 32.7974 126.909 32.6617C126.835 32.5585 126.775 32.4892 126.728 32.4538C126.66 32.4067 126.551 32.3654 126.4 32.33V32.1663Z" fill="white"/>
<path d="M28.6994 1.69913C28.3021 1.29859 27.8295 0.98067 27.3087 0.763715C26.788 0.546759 26.2294 0.435059 25.6653 0.435059C25.1011 0.435059 24.5426 0.546759 24.0218 0.763715C23.5011 0.98067 23.0284 1.29859 22.6311 1.69913L1.26407 23.0662C0.863529 23.4635 0.545611 23.9361 0.328655 24.4569C0.1117 24.9776 0 25.5362 0 26.1003C0 26.6645 0.1117 27.223 0.328655 27.7438C0.545611 28.2645 0.863529 28.7372 1.26407 29.1345L22.6311 50.5015C23.0284 50.9021 23.5011 51.22 24.0218 51.4369C24.5426 51.6539 25.1011 51.7656 25.6653 51.7656C26.2294 51.7656 26.788 51.6539 27.3087 51.4369C27.8295 51.22 28.3021 50.9021 28.6994 50.5015C29.0999 50.1043 29.4179 49.6316 29.6348 49.1109C29.8518 48.5901 29.9635 48.0315 29.9635 47.4674C29.9635 46.9033 29.8518 46.3447 29.6348 45.8239C29.4179 45.3032 29.0999 44.8306 28.6994 44.4333L10.3237 26.1003L28.6994 7.76738C29.0999 7.37011 29.4179 6.89746 29.6348 6.37671C29.8518 5.85595 29.9635 5.29739 29.9635 4.73325C29.9635 4.16911 29.8518 3.61055 29.6348 3.0898C29.4179 2.56904 29.0999 2.0964 28.6994 1.69913Z" fill="white"/>
<path d="M141.301 1.69913C141.698 1.29859 142.171 0.98067 142.691 0.763715C143.212 0.546759 143.771 0.435059 144.335 0.435059C144.899 0.435059 145.457 0.546759 145.978 0.763715C146.499 0.98067 146.972 1.29859 147.369 1.69913L168.736 23.0662C169.136 23.4635 169.454 23.9361 169.671 24.4569C169.888 24.9776 170 25.5362 170 26.1003C170 26.6645 169.888 27.223 169.671 27.7438C169.454 28.2645 169.136 28.7372 168.736 29.1345L147.369 50.5015C146.972 50.9021 146.499 51.22 145.978 51.4369C145.457 51.6539 144.899 51.7656 144.335 51.7656C143.771 51.7656 143.212 51.6539 142.691 51.4369C142.171 51.22 141.698 50.9021 141.301 50.5015C140.9 50.1043 140.582 49.6316 140.365 49.1109C140.148 48.5901 140.037 48.0315 140.037 47.4674C140.037 46.9033 140.148 46.3447 140.365 45.8239C140.582 45.3032 140.9 44.8306 141.301 44.4333L159.676 26.1003L141.301 7.76738C140.9 7.37011 140.582 6.89746 140.365 6.37671C140.148 5.85595 140.037 5.29739 140.037 4.73325C140.037 4.16911 140.148 3.61055 140.365 3.0898C140.582 2.56904 140.9 2.0964 141.301 1.69913Z" fill="white"/>
</svg>
